<?xml version="1.0" encoding="utf-8"?>
<svg xmlns="http://www.w3.org/2000/svg" viewBox="0 0 24 24" width="25" height="25">
  <rect width="12" height="4" x="3" y="16" opacity=".35" fill="#009966" />
  <path d="M9,11c-2,0-6,1.686-6,5h12C15,12.686,11,11,9,11z" fill="#009966" />
  <path d="M19,8h-2c-0.552,0-1-0.448-1-1v0c0-0.552,0.448-1,1-1h2c0.552,0,1,0.448,1,1v0C20,7.552,19.552,8,19,8z" fill="#009966" />
  <path d="M18,2L18,2c-0.552,0-1,0.448-1,1v3h2V3C19,2.448,18.552,2,18,2z" opacity=".35" fill="#009966" />
  <polygon points="17,6 16,20 20.048,20.082 19,6" opacity=".35" fill="#009966" />
  <path d="M22,20h-7v-2c-1.105,0-2,0.895-2,2h-2c0-1.105-0.895-2-2-2s-2,0.895-2,2H5c0-1.105-0.895-2-2-2v2H2c-0.552,0-1,0.448-1,1 c0,0.552,0.448,1,1,1h20c0.552,0,1-0.448,1-1C23,20.448,22.552,20,22,20z" fill="#009966" />
</svg>